<mxfile host="app.diagrams.net" agent="Mozilla/5.0 (Windows NT 10.0; Win64; x64) AppleWebKit/537.36 (KHTML, like Gecko) Chrome/130.0.0.0 Safari/537.36" version="24.7.12">
  <diagram name="Page-1" id="2SjJgLrU75RXw6uu91HS">
    <mxGraphModel dx="924" dy="535" grid="1" gridSize="10" guides="1" tooltips="1" connect="1" arrows="1" fold="1" page="1" pageScale="1" pageWidth="850" pageHeight="1100" math="0" shadow="0">
      <root>
        <mxCell id="0" />
        <mxCell id="1" parent="0" />
        <mxCell id="QjAl-7GEvVI2G_AsV2Bf-11" value="&lt;font face=&quot;Times New Roman&quot; style=&quot;font-size: 19px;&quot;&gt;Preprocessing&lt;/font&gt;&lt;div&gt;&lt;font face=&quot;Times New Roman&quot; style=&quot;font-size: 16px;&quot;&gt;&lt;br&gt;&lt;/font&gt;&lt;/div&gt;&lt;div&gt;&lt;font face=&quot;Times New Roman&quot; style=&quot;font-size: 16px;&quot;&gt;&lt;br&gt;&lt;/font&gt;&lt;/div&gt;&lt;div&gt;&lt;font face=&quot;Times New Roman&quot; style=&quot;font-size: 16px;&quot;&gt;&lt;br&gt;&lt;/font&gt;&lt;/div&gt;&lt;div&gt;&lt;font face=&quot;Times New Roman&quot; style=&quot;font-size: 16px;&quot;&gt;&lt;br&gt;&lt;/font&gt;&lt;/div&gt;" style="rounded=1;whiteSpace=wrap;html=1;" vertex="1" parent="1">
          <mxGeometry x="216" y="90" width="594" height="110" as="geometry" />
        </mxCell>
        <mxCell id="QjAl-7GEvVI2G_AsV2Bf-8" style="edgeStyle=orthogonalEdgeStyle;rounded=0;orthogonalLoop=1;jettySize=auto;html=1;entryX=0;entryY=0.5;entryDx=0;entryDy=0;" edge="1" parent="1" source="QjAl-7GEvVI2G_AsV2Bf-1" target="QjAl-7GEvVI2G_AsV2Bf-2">
          <mxGeometry relative="1" as="geometry" />
        </mxCell>
        <mxCell id="QjAl-7GEvVI2G_AsV2Bf-1" value="&lt;font style=&quot;font-size: 15px;&quot; face=&quot;Times New Roman&quot;&gt;Input Document&lt;/font&gt;" style="shape=note;whiteSpace=wrap;html=1;backgroundOutline=1;darkOpacity=0.05;" vertex="1" parent="1">
          <mxGeometry x="100" y="101" width="80" height="100" as="geometry" />
        </mxCell>
        <mxCell id="QjAl-7GEvVI2G_AsV2Bf-9" style="edgeStyle=orthogonalEdgeStyle;rounded=0;orthogonalLoop=1;jettySize=auto;html=1;exitX=1;exitY=0.5;exitDx=0;exitDy=0;entryX=0;entryY=0.5;entryDx=0;entryDy=0;" edge="1" parent="1" source="QjAl-7GEvVI2G_AsV2Bf-2" target="QjAl-7GEvVI2G_AsV2Bf-4">
          <mxGeometry relative="1" as="geometry" />
        </mxCell>
        <mxCell id="QjAl-7GEvVI2G_AsV2Bf-2" value="&lt;font face=&quot;Times New Roman&quot; style=&quot;font-size: 15px;&quot;&gt;Tokenization&lt;/font&gt;" style="rounded=1;whiteSpace=wrap;html=1;" vertex="1" parent="1">
          <mxGeometry x="241" y="131" width="159" height="40" as="geometry" />
        </mxCell>
        <mxCell id="QjAl-7GEvVI2G_AsV2Bf-10" style="edgeStyle=orthogonalEdgeStyle;rounded=0;orthogonalLoop=1;jettySize=auto;html=1;exitX=1;exitY=0.5;exitDx=0;exitDy=0;entryX=0;entryY=0.5;entryDx=0;entryDy=0;" edge="1" parent="1" source="QjAl-7GEvVI2G_AsV2Bf-4" target="QjAl-7GEvVI2G_AsV2Bf-6">
          <mxGeometry relative="1" as="geometry" />
        </mxCell>
        <mxCell id="QjAl-7GEvVI2G_AsV2Bf-4" value="&lt;font face=&quot;Times New Roman&quot; style=&quot;font-size: 15px;&quot;&gt;Stopword Removal&lt;/font&gt;" style="rounded=1;whiteSpace=wrap;html=1;" vertex="1" parent="1">
          <mxGeometry x="430" y="131" width="160" height="40" as="geometry" />
        </mxCell>
        <mxCell id="QjAl-7GEvVI2G_AsV2Bf-6" value="&lt;font face=&quot;Times New Roman&quot; style=&quot;font-size: 15px;&quot;&gt;Vector Embedding&lt;/font&gt;" style="rounded=1;whiteSpace=wrap;html=1;" vertex="1" parent="1">
          <mxGeometry x="620" y="131" width="160" height="40" as="geometry" />
        </mxCell>
        <mxCell id="QjAl-7GEvVI2G_AsV2Bf-12" value="" style="shape=partialRectangle;whiteSpace=wrap;html=1;top=0;left=0;fillColor=none;flipH=1;" vertex="1" parent="1">
          <mxGeometry x="870" y="121" width="120" height="60" as="geometry" />
        </mxCell>
        <mxCell id="QjAl-7GEvVI2G_AsV2Bf-13" value="" style="strokeWidth=2;html=1;shape=mxgraph.flowchart.decision;whiteSpace=wrap;" vertex="1" parent="1">
          <mxGeometry x="890" y="71" width="100" height="100" as="geometry" />
        </mxCell>
      </root>
    </mxGraphModel>
  </diagram>
</mxfile>
